<svg width="403" height="53" viewBox="0 0 403 53" fill="none" xmlns="http://www.w3.org/2000/svg">
<path d="M28.1406 47.5312C28.2708 49.0417 27.763 50.3307 26.6172 51.3984C25.4974 52.4661 24.1953 53 22.7109 53H11.1875C9.67708 53 8.40104 52.4792 7.35938 51.4375C6.31771 50.3958 5.69271 49.0938 5.48438 47.5312L0.5625 6.4375C0.432292 4.92708 0.940104 3.63802 2.08594 2.57031C3.20573 1.5026 4.52083 0.96875 6.03125 0.96875H17.5156C19.026 0.96875 20.3021 1.48958 21.3438 2.53125C22.3854 3.57292 23.0104 4.875 23.2188 6.4375L24.7422 19.0938H15.4453L14.2734 9.36719C14.2214 9.05469 14.0911 8.79427 13.8828 8.58594C13.7005 8.35156 13.4531 8.23438 13.1406 8.23438H10.7188C10.4062 8.23438 10.1328 8.35156 9.89844 8.58594C9.66406 8.79427 9.5599 9.05469 9.58594 9.36719L13.8047 44.6016C13.8568 44.9141 13.974 45.1875 14.1562 45.4219C14.3646 45.6302 14.625 45.7344 14.9375 45.7344H17.3594C17.6719 45.7344 17.9453 45.6302 18.1797 45.4219C18.4141 45.1875 18.5182 44.9141 18.4922 44.6016L17.3203 34.8359H26.6562L28.1406 47.5312ZM50.25 6.4375L55.7969 53H46.4609L44.1562 33.5469H39.4688L41.7734 53H33.1016L27.5547 6.4375C27.4245 4.92708 27.9323 3.63802 29.0781 2.57031C30.1979 1.5026 31.513 0.96875 33.0234 0.96875H44.5078C46.0182 0.96875 47.2943 1.48958 48.3359 2.53125C49.3776 3.57292 50.0156 4.875 50.25 6.4375ZM38.5312 25.7344H43.1797L41.2266 9.36719C41.2005 9.05469 41.0833 8.79427 40.875 8.58594C40.6667 8.35156 40.4062 8.23438 40.0938 8.23438H37.7109C37.3984 8.23438 37.125 8.35156 36.8906 8.58594C36.6562 8.79427 36.5521 9.05469 36.5781 9.36719L38.5312 25.7344ZM79.3906 24.875C79.5208 26.3854 79.013 27.6745 77.8672 28.7422C76.7474 29.8099 75.4323 30.3438 73.9219 30.3438H66.0312L68.7266 53H60.0547L53.8438 0.96875H62.5156H71.4609C72.9714 0.96875 74.2474 1.48958 75.2891 2.53125C76.3568 3.57292 76.9948 4.875 77.2031 6.4375L78.6094 18.1562L79.3906 24.875ZM68.5312 22.4922C68.8438 22.4922 69.1042 22.388 69.3125 22.1797C69.5469 21.9453 69.651 21.6719 69.625 21.3594L68.2188 9.36719C68.1667 9.02865 68.0234 8.75521 67.7891 8.54688C67.5807 8.33854 67.3203 8.23438 67.0078 8.23438H63.375L65.0938 22.4922H68.5312ZM95.0547 53H86.3828L80.1719 0.96875H88.8438L95.0547 53ZM109.312 0.96875H118.648L116.5 53H105.797L90.9141 0.96875H99.625L109.312 37.2969V0.96875ZM144 6.4375L149.547 53H140.211L137.906 33.5469H133.219L135.523 53H126.852L121.305 6.4375C121.174 4.92708 121.682 3.63802 122.828 2.57031C123.948 1.5026 125.263 0.96875 126.773 0.96875H138.258C139.768 0.96875 141.044 1.48958 142.086 2.53125C143.128 3.57292 143.766 4.875 144 6.4375ZM132.281 25.7344H136.93L134.977 9.36719C134.951 9.05469 134.833 8.79427 134.625 8.58594C134.417 8.35156 134.156 8.23438 133.844 8.23438H131.461C131.148 8.23438 130.875 8.35156 130.641 8.58594C130.406 8.79427 130.302 9.05469 130.328 9.36719L132.281 25.7344ZM173.922 31.3203L176.5 53H167.164L164.586 31.4766C164.56 31.1641 164.43 30.9036 164.195 30.6953C163.987 30.4609 163.727 30.3438 163.414 30.3438H159.781L162.477 53H153.805L147.594 0.96875H165.211C166.721 0.96875 167.997 1.48958 169.039 2.53125C170.107 3.57292 170.745 4.875 170.953 6.4375L172.633 20.3828C172.789 21.8672 172.464 23.1562 171.656 24.25C170.875 25.3177 169.729 25.8516 168.219 25.8516C169.729 25.8516 171.005 26.3724 172.047 27.4141C173.089 28.4557 173.714 29.7578 173.922 31.3203ZM162.242 22.4922C162.555 22.4922 162.828 22.388 163.062 22.1797C163.297 21.9453 163.401 21.6719 163.375 21.3594L161.969 9.36719C161.917 9.02865 161.773 8.75521 161.539 8.54688C161.331 8.33854 161.07 8.23438 160.758 8.23438H157.125L158.844 22.4922H162.242ZM197.906 6.4375L203.453 53H194.117L191.812 33.5469H187.125L189.43 53H180.758L175.211 6.4375C175.081 4.92708 175.589 3.63802 176.734 2.57031C177.854 1.5026 179.169 0.96875 180.68 0.96875H192.164C193.674 0.96875 194.951 1.48958 195.992 2.53125C197.034 3.57292 197.672 4.875 197.906 6.4375ZM186.188 25.7344H190.836L188.883 9.36719C188.857 9.05469 188.74 8.79427 188.531 8.58594C188.323 8.35156 188.062 8.23438 187.75 8.23438H185.367C185.055 8.23438 184.781 8.35156 184.547 8.58594C184.312 8.79427 184.208 9.05469 184.234 9.36719L186.188 25.7344ZM244.391 31.3203L246.969 53H237.633L235.055 31.4766C235.029 31.1641 234.898 30.9036 234.664 30.6953C234.456 30.4609 234.195 30.3438 233.883 30.3438H230.25L232.945 53H224.273L218.062 0.96875H235.68C237.19 0.96875 238.466 1.48958 239.508 2.53125C240.576 3.57292 241.214 4.875 241.422 6.4375L243.102 20.3828C243.258 21.8672 242.932 23.1562 242.125 24.25C241.344 25.3177 240.198 25.8516 238.688 25.8516C240.198 25.8516 241.474 26.3724 242.516 27.4141C243.557 28.4557 244.182 29.7578 244.391 31.3203ZM232.711 22.4922C233.023 22.4922 233.297 22.388 233.531 22.1797C233.766 21.9453 233.87 21.6719 233.844 21.3594L232.438 9.36719C232.385 9.02865 232.242 8.75521 232.008 8.54688C231.799 8.33854 231.539 8.23438 231.227 8.23438H227.594L229.312 22.4922H232.711ZM267.828 53H251.227L245.016 0.96875H261.5L262.359 8.23438H254.547L256.266 22.4922H264.156L265.094 30.3828H257.203L259.039 45.7344H266.969L267.828 53ZM294 47.5312C294.13 49.0417 293.622 50.3307 292.477 51.3984C291.357 52.4661 290.055 53 288.57 53H277.047C275.536 53 274.26 52.4792 273.219 51.4375C272.177 50.3958 271.552 49.0938 271.344 47.5312L266.422 6.4375C266.292 4.92708 266.799 3.63802 267.945 2.57031C269.065 1.5026 270.38 0.96875 271.891 0.96875H283.375C284.885 0.96875 286.161 1.48958 287.203 2.53125C288.245 3.57292 288.87 4.875 289.078 6.4375L290.602 19.0938H281.305L280.133 9.36719C280.081 9.05469 279.951 8.79427 279.742 8.58594C279.56 8.35156 279.312 8.23438 279 8.23438H276.578C276.266 8.23438 275.992 8.35156 275.758 8.58594C275.523 8.79427 275.419 9.05469 275.445 9.36719L279.664 44.6016C279.716 44.9141 279.833 45.1875 280.016 45.4219C280.224 45.6302 280.484 45.7344 280.797 45.7344H283.219C283.531 45.7344 283.805 45.6302 284.039 45.4219C284.273 45.1875 284.378 44.9141 284.352 44.6016L283.18 34.8359H292.516L294 47.5312ZM320.953 47.5312C321.083 49.0417 320.589 50.3307 319.469 51.3984C318.349 52.4661 317.034 53 315.523 53H304C302.49 53 301.214 52.4792 300.172 51.4375C299.13 50.3958 298.505 49.0938 298.297 47.5312L293.375 6.4375C293.245 4.92708 293.753 3.63802 294.898 2.57031C296.018 1.5026 297.333 0.96875 298.844 0.96875H310.328C311.839 0.96875 313.115 1.48958 314.156 2.53125C315.224 3.57292 315.862 4.875 316.07 6.4375L320.953 47.5312ZM310.172 45.6953C310.484 45.6953 310.758 45.5911 310.992 45.3828C311.227 45.1484 311.331 44.875 311.305 44.5625L307.086 9.32812C307.034 9.01562 306.904 8.75521 306.695 8.54688C306.513 8.3125 306.266 8.19531 305.953 8.19531H303.531C303.219 8.19531 302.945 8.3125 302.711 8.54688C302.477 8.75521 302.372 9.01562 302.398 9.32812L306.617 44.5625C306.669 44.875 306.786 45.1484 306.969 45.3828C307.177 45.5911 307.438 45.6953 307.75 45.6953H310.172ZM346.031 31.3203L348.609 53H339.273L336.695 31.4766C336.669 31.1641 336.539 30.9036 336.305 30.6953C336.096 30.4609 335.836 30.3438 335.523 30.3438H331.891L334.586 53H325.914L319.703 0.96875H337.32C338.831 0.96875 340.107 1.48958 341.148 2.53125C342.216 3.57292 342.854 4.875 343.062 6.4375L344.742 20.3828C344.898 21.8672 344.573 23.1562 343.766 24.25C342.984 25.3177 341.839 25.8516 340.328 25.8516C341.839 25.8516 343.115 26.3724 344.156 27.4141C345.198 28.4557 345.823 29.7578 346.031 31.3203ZM334.352 22.4922C334.664 22.4922 334.938 22.388 335.172 22.1797C335.406 21.9453 335.51 21.6719 335.484 21.3594L334.078 9.36719C334.026 9.02865 333.883 8.75521 333.648 8.54688C333.44 8.33854 333.18 8.23438 332.867 8.23438H329.234L330.953 22.4922H334.352ZM374.898 47.5312C375.029 49.0417 374.521 50.3307 373.375 51.3984C372.255 52.4661 370.953 53 369.469 53H352.867L346.656 0.96875H364.273C365.784 0.96875 367.06 1.48958 368.102 2.53125C369.143 3.57292 369.768 4.875 369.977 6.4375L374.898 47.5312ZM364.117 45.7344C364.43 45.7344 364.69 45.6302 364.898 45.4219C365.133 45.1875 365.25 44.9141 365.25 44.6016L360.992 9.36719C360.966 9.02865 360.836 8.75521 360.602 8.54688C360.393 8.33854 360.133 8.23438 359.82 8.23438H356.188L360.68 45.7344H364.117ZM401.812 47.5312C401.943 49.0417 401.448 50.3307 400.328 51.3984C399.208 52.4661 397.893 53 396.383 53H384.859C383.349 53 382.073 52.4792 381.031 51.4375C379.99 50.3958 379.365 49.0938 379.156 47.5312L377.633 34.8359H386.305L387.477 44.6016C387.529 44.9141 387.646 45.1875 387.828 45.4219C388.036 45.6302 388.297 45.7344 388.609 45.7344H391.031C391.344 45.7344 391.617 45.6302 391.852 45.4219C392.086 45.1875 392.19 44.9141 392.164 44.6016V44.5625L390.914 33.3516C390.862 33.0391 390.719 32.7917 390.484 32.6094C390.276 32.4271 390.042 32.2839 389.781 32.1797L381.383 28.6641C380.003 28.1172 378.857 27.4922 377.945 26.7891C377.06 26.0859 376.5 25.0182 376.266 23.5859L374.234 6.4375C374.104 4.92708 374.612 3.63802 375.758 2.57031C376.878 1.5026 378.193 0.96875 379.703 0.96875H391.188C392.698 0.96875 393.974 1.48958 395.016 2.53125C396.083 3.57292 396.721 4.875 396.93 6.4375L398.414 19.0938H389.117L387.984 9.36719C387.932 9.05469 387.802 8.79427 387.594 8.58594C387.411 8.35156 387.164 8.23438 386.852 8.23438H384.43C384.117 8.23438 383.844 8.35156 383.609 8.58594C383.375 8.79427 383.271 9.05469 383.297 9.36719L384.547 20.7344C384.599 21.0469 384.729 21.2943 384.938 21.4766C385.146 21.6328 385.393 21.763 385.68 21.8672L394.078 25.3828C395.51 25.9297 396.76 26.6068 397.828 27.4141C398.896 28.2214 399.547 29.3672 399.781 30.8516L401.812 47.5312Z" fill="#CE2237"/>
</svg>
