<svg width="119" height="24" viewBox="0 0 119 24" fill="none" xmlns="http://www.w3.org/2000/svg">
<path d="M7.49995 7.66999V6.69999C7.49995 4.44999 9.30995 2.23999 11.5599 2.02999C12.1851 1.96856 12.8162 2.03871 13.4127 2.23592C14.0091 2.43313 14.5576 2.75303 15.0229 3.17503C15.4883 3.59703 15.8601 4.11178 16.1145 4.68616C16.3689 5.26053 16.5002 5.8818 16.4999 6.50999V7.88999M8.99995 22H14.9999C19.0199 22 19.7399 20.39 19.9499 18.43L20.6999 12.43C20.9699 9.98999 20.2699 7.99999 15.9999 7.99999H7.99995C3.72995 7.99999 3.02995 9.98999 3.29995 12.43L4.04995 18.43C4.25995 20.39 4.97995 22 8.99995 22Z" stroke="black" stroke-width="1.5" stroke-miterlimit="10" stroke-linecap="round" stroke-linejoin="round"/>
<path d="M15.495 12H15.505M8.495 12H8.503" stroke="black" stroke-width="2" stroke-linecap="round" stroke-linejoin="round"/>
<path d="M35.7205 8.144C35.0205 8.144 34.3625 8.27 33.7745 8.522C33.1725 8.774 32.6545 9.124 32.2065 9.572C31.7585 10.02 31.4225 10.566 31.1705 11.182C30.9185 11.798 30.7925 12.47 30.7925 13.198C30.7925 13.926 30.9045 14.612 31.1425 15.228C31.3805 15.858 31.7165 16.404 32.1505 16.852C32.5845 17.314 33.1025 17.678 33.7045 17.93C34.3065 18.182 34.9785 18.308 35.7205 18.308C36.3085 18.308 36.8265 18.238 37.3025 18.098C37.7645 17.958 38.1845 17.762 38.5485 17.496C38.9125 17.244 39.2345 16.936 39.5145 16.572C39.7945 16.208 40.0325 15.816 40.2425 15.368H38.9265C38.6745 15.942 38.2825 16.404 37.7505 16.754C37.2185 17.104 36.5605 17.272 35.7765 17.272C35.2165 17.272 34.7125 17.174 34.2505 16.964C33.7885 16.754 33.3965 16.46 33.0605 16.096C32.7245 15.732 32.4585 15.312 32.2765 14.808C32.0805 14.318 31.9965 13.786 31.9965 13.212C31.9965 12.568 32.0945 11.98 32.3045 11.476C32.5145 10.972 32.7945 10.552 33.1305 10.216C33.4665 9.88 33.8725 9.614 34.3205 9.446C34.7685 9.278 35.2305 9.18 35.7065 9.18C36.4905 9.18 37.1485 9.348 37.6665 9.67C38.1705 10.006 38.5485 10.412 38.7865 10.902H40.1025C39.9625 10.594 39.7945 10.286 39.5705 9.964C39.3465 9.642 39.0525 9.348 38.7025 9.068C38.3525 8.802 37.9325 8.578 37.4425 8.41C36.9385 8.242 36.3645 8.144 35.7205 8.144ZM47.742 8.452L43.85 18H45.082L46.076 15.424H50.304L51.284 18H52.558L48.778 8.452H47.742ZM46.468 14.388L47.504 11.714C47.56 11.574 47.616 11.434 47.672 11.266C47.728 11.098 47.798 10.93 47.854 10.762C47.91 10.594 47.98 10.412 48.036 10.244C48.092 10.076 48.134 9.922 48.19 9.768H48.246C48.274 9.908 48.33 10.062 48.386 10.23C48.442 10.398 48.498 10.58 48.554 10.748C48.61 10.93 48.68 11.098 48.736 11.266C48.792 11.434 48.848 11.574 48.904 11.7L49.912 14.388H46.468ZM63.2783 18L60.2683 13.898C60.5623 13.842 60.8423 13.744 61.1223 13.576C61.3883 13.422 61.6263 13.226 61.8223 13.002C62.0183 12.778 62.1863 12.512 62.2983 12.204C62.4103 11.91 62.4803 11.588 62.4803 11.252C62.4803 10.93 62.4243 10.594 62.3123 10.258C62.2003 9.922 62.0043 9.628 61.7523 9.362C61.5003 9.096 61.1643 8.872 60.7583 8.704C60.3383 8.536 59.8343 8.452 59.2463 8.452H56.4883V18H57.6503V14.01H58.9243L61.8083 18H63.2783ZM61.2763 11.252C61.2763 11.49 61.2343 11.714 61.1503 11.91C61.0663 12.12 60.9543 12.302 60.8003 12.456C60.6323 12.61 60.4363 12.736 60.2123 12.82C59.9743 12.904 59.6943 12.946 59.3863 12.946H57.6503V9.516H59.3723C59.9883 9.516 60.4503 9.67 60.7863 9.964C61.1083 10.272 61.2763 10.692 61.2763 11.252ZM73.9944 18L70.9844 13.898C71.2784 13.842 71.5584 13.744 71.8384 13.576C72.1044 13.422 72.3424 13.226 72.5384 13.002C72.7344 12.778 72.9024 12.512 73.0144 12.204C73.1264 11.91 73.1964 11.588 73.1964 11.252C73.1964 10.93 73.1404 10.594 73.0284 10.258C72.9164 9.922 72.7204 9.628 72.4684 9.362C72.2164 9.096 71.8804 8.872 71.4744 8.704C71.0544 8.536 70.5504 8.452 69.9624 8.452H67.2044V18H68.3664V14.01H69.6404L72.5244 18H73.9944ZM71.9924 11.252C71.9924 11.49 71.9504 11.714 71.8664 11.91C71.7824 12.12 71.6704 12.302 71.5164 12.456C71.3484 12.61 71.1524 12.736 70.9284 12.82C70.6904 12.904 70.4104 12.946 70.1024 12.946H68.3664V9.516H70.0884C70.7044 9.516 71.1664 9.67 71.5024 9.964C71.8244 10.272 71.9924 10.692 71.9924 11.252ZM77.9204 8.452V18H79.0824V8.452H77.9204ZM85.0246 10.286H85.0526C85.1226 10.426 85.2066 10.58 85.3046 10.748C85.4026 10.916 85.5286 11.126 85.6826 11.35C85.8366 11.588 86.0186 11.868 86.2426 12.204C86.4666 12.54 86.7326 12.932 87.0686 13.408L90.1766 18H91.2686V8.452H90.1766V14.15V14.612V15.158C90.1766 15.354 90.1766 15.536 90.1766 15.704C90.1766 15.886 90.1906 16.04 90.2046 16.18H90.1766C90.0086 15.9 89.7706 15.508 89.4626 15.018C89.1546 14.528 88.7206 13.87 88.1606 13.044L85.0526 8.452H83.9606V18H85.0526V12.288V11.84C85.0526 11.672 85.0386 11.49 85.0386 11.294C85.0386 11.112 85.0246 10.93 85.0246 10.748C85.0246 10.58 85.0246 10.426 85.0246 10.286ZM102.552 13.59V18H103.714V8.452H102.552V12.526H97.3015V8.452H96.1395V18H97.3015V13.59H102.552ZM109.292 13.226C109.292 12.638 109.39 12.106 109.586 11.602C109.782 11.112 110.048 10.692 110.398 10.328C110.734 9.964 111.14 9.684 111.616 9.488C112.092 9.292 112.596 9.18 113.142 9.18C113.702 9.18 114.234 9.292 114.71 9.488C115.186 9.698 115.592 9.978 115.928 10.342C116.264 10.706 116.53 11.14 116.726 11.63C116.908 12.134 117.006 12.666 117.006 13.226C117.006 13.814 116.908 14.346 116.712 14.836C116.516 15.34 116.236 15.76 115.886 16.124C115.536 16.488 115.13 16.768 114.654 16.964C114.178 17.174 113.674 17.272 113.142 17.272C112.596 17.272 112.092 17.174 111.616 16.964C111.14 16.768 110.734 16.488 110.398 16.124C110.048 15.76 109.782 15.34 109.586 14.836C109.39 14.346 109.292 13.814 109.292 13.226ZM108.088 13.226C108.088 13.814 108.186 14.416 108.382 15.018C108.578 15.634 108.886 16.18 109.306 16.656C109.726 17.146 110.244 17.538 110.888 17.846C111.532 18.154 112.288 18.308 113.156 18.308C113.87 18.308 114.542 18.182 115.158 17.916C115.774 17.65 116.306 17.286 116.754 16.824C117.202 16.362 117.566 15.816 117.818 15.2C118.07 14.584 118.21 13.926 118.21 13.226C118.21 12.554 118.084 11.924 117.86 11.308C117.622 10.692 117.286 10.16 116.852 9.684C116.418 9.222 115.886 8.844 115.27 8.564C114.64 8.284 113.94 8.144 113.156 8.144C112.414 8.144 111.728 8.284 111.112 8.564C110.496 8.844 109.964 9.208 109.516 9.67C109.068 10.132 108.718 10.664 108.466 11.28C108.214 11.896 108.088 12.554 108.088 13.226Z" fill="black"/>
</svg>
