<svg width="17" height="20" viewBox="0 0 17 20" fill="none" xmlns="http://www.w3.org/2000/svg">
<path d="M4.56247 6.39168V5.58334C4.56247 3.70834 6.14622 1.86668 8.11497 1.69168C8.662 1.64049 9.21422 1.69895 9.73609 1.86329C10.258 2.02763 10.7379 2.29421 11.1451 2.64588C11.5523 2.99755 11.8776 3.42651 12.1002 3.90515C12.3228 4.3838 12.4377 4.90152 12.4375 5.42501V6.57501M5.87497 18.3333H11.125C14.6425 18.3333 15.2725 16.9917 15.4562 15.3583L16.1125 10.3583C16.3487 8.32501 15.7362 6.66668 12 6.66668H4.99997C1.26372 6.66668 0.65122 8.32501 0.88747 10.3583L1.54372 15.3583C1.72747 16.9917 2.35747 18.3333 5.87497 18.3333Z" stroke="black" stroke-width="1.5" stroke-miterlimit="10" stroke-linecap="round" stroke-linejoin="round"/>
</svg>
