<svg width="86" height="27" viewBox="0 0 86 27" fill="none" xmlns="http://www.w3.org/2000/svg">
<path d="M33.5016 9.144C32.8016 9.144 32.1436 9.27 31.5556 9.522C30.9536 9.774 30.4356 10.124 29.9876 10.572C29.5396 11.02 29.2036 11.566 28.9516 12.182C28.6996 12.798 28.5736 13.47 28.5736 14.198C28.5736 14.926 28.6856 15.612 28.9236 16.228C29.1616 16.858 29.4976 17.404 29.9316 17.852C30.3656 18.314 30.8836 18.678 31.4856 18.93C32.0876 19.182 32.7596 19.308 33.5016 19.308C34.0896 19.308 34.6076 19.238 35.0836 19.098C35.5456 18.958 35.9656 18.762 36.3296 18.496C36.6936 18.244 37.0156 17.936 37.2956 17.572C37.5756 17.208 37.8136 16.816 38.0236 16.368H36.7076C36.4556 16.942 36.0636 17.404 35.5316 17.754C34.9996 18.104 34.3416 18.272 33.5576 18.272C32.9976 18.272 32.4936 18.174 32.0316 17.964C31.5696 17.754 31.1776 17.46 30.8416 17.096C30.5056 16.732 30.2396 16.312 30.0576 15.808C29.8616 15.318 29.7776 14.786 29.7776 14.212C29.7776 13.568 29.8756 12.98 30.0856 12.476C30.2956 11.972 30.5756 11.552 30.9116 11.216C31.2476 10.88 31.6536 10.614 32.1016 10.446C32.5496 10.278 33.0116 10.18 33.4876 10.18C34.2716 10.18 34.9296 10.348 35.4476 10.67C35.9516 11.006 36.3296 11.412 36.5676 11.902H37.8836C37.7436 11.594 37.5756 11.286 37.3516 10.964C37.1276 10.642 36.8336 10.348 36.4836 10.068C36.1336 9.802 35.7136 9.578 35.2236 9.41C34.7196 9.242 34.1456 9.144 33.5016 9.144ZM43.269 14.226C43.269 13.638 43.367 13.106 43.563 12.602C43.759 12.112 44.025 11.692 44.375 11.328C44.711 10.964 45.117 10.684 45.593 10.488C46.069 10.292 46.573 10.18 47.119 10.18C47.679 10.18 48.211 10.292 48.687 10.488C49.163 10.698 49.569 10.978 49.905 11.342C50.241 11.706 50.507 12.14 50.703 12.63C50.885 13.134 50.983 13.666 50.983 14.226C50.983 14.814 50.885 15.346 50.689 15.836C50.493 16.34 50.213 16.76 49.863 17.124C49.513 17.488 49.107 17.768 48.631 17.964C48.155 18.174 47.651 18.272 47.119 18.272C46.573 18.272 46.069 18.174 45.593 17.964C45.117 17.768 44.711 17.488 44.375 17.124C44.025 16.76 43.759 16.34 43.563 15.836C43.367 15.346 43.269 14.814 43.269 14.226ZM42.065 14.226C42.065 14.814 42.163 15.416 42.359 16.018C42.555 16.634 42.863 17.18 43.283 17.656C43.703 18.146 44.221 18.538 44.865 18.846C45.509 19.154 46.265 19.308 47.133 19.308C47.847 19.308 48.519 19.182 49.135 18.916C49.751 18.65 50.283 18.286 50.731 17.824C51.179 17.362 51.543 16.816 51.795 16.2C52.047 15.584 52.187 14.926 52.187 14.226C52.187 13.554 52.061 12.924 51.837 12.308C51.599 11.692 51.263 11.16 50.829 10.684C50.395 10.222 49.863 9.844 49.247 9.564C48.617 9.284 47.917 9.144 47.133 9.144C46.391 9.144 45.705 9.284 45.089 9.564C44.473 9.844 43.941 10.208 43.493 10.67C43.045 11.132 42.695 11.664 42.443 12.28C42.191 12.896 42.065 13.554 42.065 14.226ZM57.6166 11.286H57.6446C57.7146 11.426 57.7986 11.58 57.8966 11.748C57.9946 11.916 58.1206 12.126 58.2746 12.35C58.4286 12.588 58.6106 12.868 58.8346 13.204C59.0586 13.54 59.3246 13.932 59.6606 14.408L62.7686 19H63.8606V9.452H62.7686V15.15V15.612V16.158C62.7686 16.354 62.7686 16.536 62.7686 16.704C62.7686 16.886 62.7826 17.04 62.7966 17.18H62.7686C62.6006 16.9 62.3626 16.508 62.0546 16.018C61.7466 15.528 61.3126 14.87 60.7526 14.044L57.6446 9.452H56.5526V19H57.6446V13.288V12.84C57.6446 12.672 57.6306 12.49 57.6306 12.294C57.6306 12.112 57.6166 11.93 57.6166 11.748C57.6166 11.58 57.6166 11.426 57.6166 11.286ZM70.3975 10.516V19H71.5595V10.516H74.0655V9.452H67.8915V10.516H70.3975ZM81.048 9.452L77.156 19H78.388L79.382 16.424H83.61L84.59 19H85.864L82.084 9.452H81.048ZM79.774 15.388L80.81 12.714C80.866 12.574 80.922 12.434 80.978 12.266C81.034 12.098 81.104 11.93 81.16 11.762C81.216 11.594 81.286 11.412 81.342 11.244C81.398 11.076 81.44 10.922 81.496 10.768H81.552C81.58 10.908 81.636 11.062 81.692 11.23C81.748 11.398 81.804 11.58 81.86 11.748C81.916 11.93 81.986 12.098 82.042 12.266C82.098 12.434 82.154 12.574 82.21 12.7L83.218 15.388H79.774Z" fill="black"/>
<path d="M14.7656 16.8075V15.7402C16.1578 14.9344 17.2969 12.9305 17.2969 10.9224C17.2969 7.70345 17.2969 5.09204 13.5 5.09204C9.70312 5.09204 9.70312 7.70345 9.70312 10.9224C9.70312 12.9305 10.8422 14.9344 12.2344 15.7402V16.8075C7.93969 17.1661 4.64062 19.3388 4.64062 21.9375H22.3594C22.3594 19.3261 19.0603 17.1661 14.7656 16.8075Z" stroke="black" stroke-width="1.5" stroke-miterlimit="10"/>
</svg>
